<mxfile host="app.diagrams.net" modified="2021-01-26T04:39:30.653Z" agent="5.0 (Windows NT 10.0; Win64; x64) AppleWebKit/537.36 (KHTML, like Gecko) Chrome/87.0.4280.141 Safari/537.36" etag="Uxxf-uDfzYnNF9GWUy0-" version="14.2.7" type="github">
  <diagram id="8gwgfgab7osLSwUelP4G" name="Page-1">
    <mxGraphModel dx="1038" dy="580" grid="1" gridSize="10" guides="1" tooltips="1" connect="1" arrows="1" fold="1" page="1" pageScale="1" pageWidth="850" pageHeight="1100" math="0" shadow="0">
      <root>
        <mxCell id="0" />
        <mxCell id="1" parent="0" />
        <mxCell id="6jE46qa5X71mXZ7icbi9-116" style="edgeStyle=orthogonalEdgeStyle;rounded=0;orthogonalLoop=1;jettySize=auto;html=1;entryX=0.25;entryY=0;entryDx=0;entryDy=0;" edge="1" parent="1" source="6jE46qa5X71mXZ7icbi9-1" target="6jE46qa5X71mXZ7icbi9-58">
          <mxGeometry relative="1" as="geometry" />
        </mxCell>
        <mxCell id="6jE46qa5X71mXZ7icbi9-119" style="edgeStyle=orthogonalEdgeStyle;rounded=0;orthogonalLoop=1;jettySize=auto;html=1;" edge="1" parent="1" source="6jE46qa5X71mXZ7icbi9-1" target="6jE46qa5X71mXZ7icbi9-27">
          <mxGeometry relative="1" as="geometry">
            <Array as="points">
              <mxPoint x="200" y="680" />
              <mxPoint x="340" y="680" />
            </Array>
          </mxGeometry>
        </mxCell>
        <mxCell id="6jE46qa5X71mXZ7icbi9-1" value="People" style="shape=table;startSize=30;container=1;collapsible=1;childLayout=tableLayout;fixedRows=1;rowLines=0;fontStyle=1;align=center;resizeLast=1;" vertex="1" parent="1">
          <mxGeometry x="110" y="240" width="180" height="160" as="geometry" />
        </mxCell>
        <mxCell id="6jE46qa5X71mXZ7icbi9-2" value="" style="shape=partialRectangle;collapsible=0;dropTarget=0;pointerEvents=0;fillColor=none;top=0;left=0;bottom=1;right=0;points=[[0,0.5],[1,0.5]];portConstraint=eastwest;" vertex="1" parent="6jE46qa5X71mXZ7icbi9-1">
          <mxGeometry y="30" width="180" height="30" as="geometry" />
        </mxCell>
        <mxCell id="6jE46qa5X71mXZ7icbi9-3" value="PK" style="shape=partialRectangle;connectable=0;fillColor=none;top=0;left=0;bottom=0;right=0;fontStyle=1;overflow=hidden;" vertex="1" parent="6jE46qa5X71mXZ7icbi9-2">
          <mxGeometry width="30" height="30" as="geometry" />
        </mxCell>
        <mxCell id="6jE46qa5X71mXZ7icbi9-4" value="person_id" style="shape=partialRectangle;connectable=0;fillColor=none;top=0;left=0;bottom=0;right=0;align=left;spacingLeft=6;fontStyle=5;overflow=hidden;" vertex="1" parent="6jE46qa5X71mXZ7icbi9-2">
          <mxGeometry x="30" width="150" height="30" as="geometry" />
        </mxCell>
        <mxCell id="6jE46qa5X71mXZ7icbi9-5" value="" style="shape=partialRectangle;collapsible=0;dropTarget=0;pointerEvents=0;fillColor=none;top=0;left=0;bottom=0;right=0;points=[[0,0.5],[1,0.5]];portConstraint=eastwest;" vertex="1" parent="6jE46qa5X71mXZ7icbi9-1">
          <mxGeometry y="60" width="180" height="30" as="geometry" />
        </mxCell>
        <mxCell id="6jE46qa5X71mXZ7icbi9-6" value="FK" style="shape=partialRectangle;connectable=0;fillColor=none;top=0;left=0;bottom=0;right=0;editable=1;overflow=hidden;" vertex="1" parent="6jE46qa5X71mXZ7icbi9-5">
          <mxGeometry width="30" height="30" as="geometry" />
        </mxCell>
        <mxCell id="6jE46qa5X71mXZ7icbi9-7" value="gender_mfu" style="shape=partialRectangle;connectable=0;fillColor=none;top=0;left=0;bottom=0;right=0;align=left;spacingLeft=6;overflow=hidden;" vertex="1" parent="6jE46qa5X71mXZ7icbi9-5">
          <mxGeometry x="30" width="150" height="30" as="geometry" />
        </mxCell>
        <mxCell id="6jE46qa5X71mXZ7icbi9-8" value="" style="shape=partialRectangle;collapsible=0;dropTarget=0;pointerEvents=0;fillColor=none;top=0;left=0;bottom=0;right=0;points=[[0,0.5],[1,0.5]];portConstraint=eastwest;" vertex="1" parent="6jE46qa5X71mXZ7icbi9-1">
          <mxGeometry y="90" width="180" height="30" as="geometry" />
        </mxCell>
        <mxCell id="6jE46qa5X71mXZ7icbi9-9" value="FK" style="shape=partialRectangle;connectable=0;fillColor=none;top=0;left=0;bottom=0;right=0;editable=1;overflow=hidden;" vertex="1" parent="6jE46qa5X71mXZ7icbi9-8">
          <mxGeometry width="30" height="30" as="geometry" />
        </mxCell>
        <mxCell id="6jE46qa5X71mXZ7icbi9-10" value="people_type_code" style="shape=partialRectangle;connectable=0;fillColor=none;top=0;left=0;bottom=0;right=0;align=left;spacingLeft=6;overflow=hidden;" vertex="1" parent="6jE46qa5X71mXZ7icbi9-8">
          <mxGeometry x="30" width="150" height="30" as="geometry" />
        </mxCell>
        <mxCell id="6jE46qa5X71mXZ7icbi9-11" value="" style="shape=partialRectangle;collapsible=0;dropTarget=0;pointerEvents=0;fillColor=none;top=0;left=0;bottom=0;right=0;points=[[0,0.5],[1,0.5]];portConstraint=eastwest;" vertex="1" parent="6jE46qa5X71mXZ7icbi9-1">
          <mxGeometry y="120" width="180" height="30" as="geometry" />
        </mxCell>
        <mxCell id="6jE46qa5X71mXZ7icbi9-12" value="" style="shape=partialRectangle;connectable=0;fillColor=none;top=0;left=0;bottom=0;right=0;editable=1;overflow=hidden;" vertex="1" parent="6jE46qa5X71mXZ7icbi9-11">
          <mxGeometry width="30" height="30" as="geometry" />
        </mxCell>
        <mxCell id="6jE46qa5X71mXZ7icbi9-13" value="other_details" style="shape=partialRectangle;connectable=0;fillColor=none;top=0;left=0;bottom=0;right=0;align=left;spacingLeft=6;overflow=hidden;" vertex="1" parent="6jE46qa5X71mXZ7icbi9-11">
          <mxGeometry x="30" width="150" height="30" as="geometry" />
        </mxCell>
        <mxCell id="6jE46qa5X71mXZ7icbi9-117" style="edgeStyle=orthogonalEdgeStyle;rounded=0;orthogonalLoop=1;jettySize=auto;html=1;entryX=0.627;entryY=-0.026;entryDx=0;entryDy=0;entryPerimeter=0;" edge="1" parent="1" source="6jE46qa5X71mXZ7icbi9-14" target="6jE46qa5X71mXZ7icbi9-58">
          <mxGeometry relative="1" as="geometry" />
        </mxCell>
        <mxCell id="6jE46qa5X71mXZ7icbi9-120" style="edgeStyle=orthogonalEdgeStyle;rounded=0;orthogonalLoop=1;jettySize=auto;html=1;entryX=0.75;entryY=0;entryDx=0;entryDy=0;" edge="1" parent="1" source="6jE46qa5X71mXZ7icbi9-14" target="6jE46qa5X71mXZ7icbi9-27">
          <mxGeometry relative="1" as="geometry">
            <Array as="points">
              <mxPoint x="590" y="450" />
              <mxPoint x="450" y="450" />
              <mxPoint x="450" y="690" />
              <mxPoint x="385" y="690" />
            </Array>
          </mxGeometry>
        </mxCell>
        <mxCell id="6jE46qa5X71mXZ7icbi9-14" value="Establishments" style="shape=table;startSize=30;container=1;collapsible=1;childLayout=tableLayout;fixedRows=1;rowLines=0;fontStyle=1;align=center;resizeLast=1;" vertex="1" parent="1">
          <mxGeometry x="500" y="240" width="180" height="200" as="geometry" />
        </mxCell>
        <mxCell id="6jE46qa5X71mXZ7icbi9-15" value="" style="shape=partialRectangle;collapsible=0;dropTarget=0;pointerEvents=0;fillColor=none;top=0;left=0;bottom=1;right=0;points=[[0,0.5],[1,0.5]];portConstraint=eastwest;" vertex="1" parent="6jE46qa5X71mXZ7icbi9-14">
          <mxGeometry y="30" width="180" height="30" as="geometry" />
        </mxCell>
        <mxCell id="6jE46qa5X71mXZ7icbi9-16" value="PK" style="shape=partialRectangle;connectable=0;fillColor=none;top=0;left=0;bottom=0;right=0;fontStyle=1;overflow=hidden;" vertex="1" parent="6jE46qa5X71mXZ7icbi9-15">
          <mxGeometry width="30" height="30" as="geometry" />
        </mxCell>
        <mxCell id="6jE46qa5X71mXZ7icbi9-17" value="establishment_id" style="shape=partialRectangle;connectable=0;fillColor=none;top=0;left=0;bottom=0;right=0;align=left;spacingLeft=6;fontStyle=5;overflow=hidden;" vertex="1" parent="6jE46qa5X71mXZ7icbi9-15">
          <mxGeometry x="30" width="150" height="30" as="geometry" />
        </mxCell>
        <mxCell id="6jE46qa5X71mXZ7icbi9-18" value="" style="shape=partialRectangle;collapsible=0;dropTarget=0;pointerEvents=0;fillColor=none;top=0;left=0;bottom=0;right=0;points=[[0,0.5],[1,0.5]];portConstraint=eastwest;" vertex="1" parent="6jE46qa5X71mXZ7icbi9-14">
          <mxGeometry y="60" width="180" height="30" as="geometry" />
        </mxCell>
        <mxCell id="6jE46qa5X71mXZ7icbi9-19" value="FK" style="shape=partialRectangle;connectable=0;fillColor=none;top=0;left=0;bottom=0;right=0;editable=1;overflow=hidden;" vertex="1" parent="6jE46qa5X71mXZ7icbi9-18">
          <mxGeometry width="30" height="30" as="geometry" />
        </mxCell>
        <mxCell id="6jE46qa5X71mXZ7icbi9-20" value="establishment_type_code" style="shape=partialRectangle;connectable=0;fillColor=none;top=0;left=0;bottom=0;right=0;align=left;spacingLeft=6;overflow=hidden;" vertex="1" parent="6jE46qa5X71mXZ7icbi9-18">
          <mxGeometry x="30" width="150" height="30" as="geometry" />
        </mxCell>
        <mxCell id="6jE46qa5X71mXZ7icbi9-21" value="" style="shape=partialRectangle;collapsible=0;dropTarget=0;pointerEvents=0;fillColor=none;top=0;left=0;bottom=0;right=0;points=[[0,0.5],[1,0.5]];portConstraint=eastwest;" vertex="1" parent="6jE46qa5X71mXZ7icbi9-14">
          <mxGeometry y="90" width="180" height="30" as="geometry" />
        </mxCell>
        <mxCell id="6jE46qa5X71mXZ7icbi9-22" value="" style="shape=partialRectangle;connectable=0;fillColor=none;top=0;left=0;bottom=0;right=0;editable=1;overflow=hidden;" vertex="1" parent="6jE46qa5X71mXZ7icbi9-21">
          <mxGeometry width="30" height="30" as="geometry" />
        </mxCell>
        <mxCell id="6jE46qa5X71mXZ7icbi9-23" value="opening_hours" style="shape=partialRectangle;connectable=0;fillColor=none;top=0;left=0;bottom=0;right=0;align=left;spacingLeft=6;overflow=hidden;" vertex="1" parent="6jE46qa5X71mXZ7icbi9-21">
          <mxGeometry x="30" width="150" height="30" as="geometry" />
        </mxCell>
        <mxCell id="6jE46qa5X71mXZ7icbi9-24" value="" style="shape=partialRectangle;collapsible=0;dropTarget=0;pointerEvents=0;fillColor=none;top=0;left=0;bottom=0;right=0;points=[[0,0.5],[1,0.5]];portConstraint=eastwest;" vertex="1" parent="6jE46qa5X71mXZ7icbi9-14">
          <mxGeometry y="120" width="180" height="30" as="geometry" />
        </mxCell>
        <mxCell id="6jE46qa5X71mXZ7icbi9-25" value="" style="shape=partialRectangle;connectable=0;fillColor=none;top=0;left=0;bottom=0;right=0;editable=1;overflow=hidden;" vertex="1" parent="6jE46qa5X71mXZ7icbi9-24">
          <mxGeometry width="30" height="30" as="geometry" />
        </mxCell>
        <mxCell id="6jE46qa5X71mXZ7icbi9-26" value="derived_staff_count" style="shape=partialRectangle;connectable=0;fillColor=none;top=0;left=0;bottom=0;right=0;align=left;spacingLeft=6;overflow=hidden;" vertex="1" parent="6jE46qa5X71mXZ7icbi9-24">
          <mxGeometry x="30" width="150" height="30" as="geometry" />
        </mxCell>
        <mxCell id="6jE46qa5X71mXZ7icbi9-27" value="Visits_to_Establishments" style="shape=table;startSize=30;container=1;collapsible=1;childLayout=tableLayout;fixedRows=1;rowLines=0;fontStyle=1;align=center;resizeLast=1;" vertex="1" parent="1">
          <mxGeometry x="250" y="710" width="180" height="160" as="geometry" />
        </mxCell>
        <mxCell id="6jE46qa5X71mXZ7icbi9-28" value="" style="shape=partialRectangle;collapsible=0;dropTarget=0;pointerEvents=0;fillColor=none;top=0;left=0;bottom=1;right=0;points=[[0,0.5],[1,0.5]];portConstraint=eastwest;" vertex="1" parent="6jE46qa5X71mXZ7icbi9-27">
          <mxGeometry y="30" width="180" height="30" as="geometry" />
        </mxCell>
        <mxCell id="6jE46qa5X71mXZ7icbi9-29" value="PK" style="shape=partialRectangle;connectable=0;fillColor=none;top=0;left=0;bottom=0;right=0;fontStyle=1;overflow=hidden;" vertex="1" parent="6jE46qa5X71mXZ7icbi9-28">
          <mxGeometry width="30" height="30" as="geometry" />
        </mxCell>
        <mxCell id="6jE46qa5X71mXZ7icbi9-30" value="visit_id" style="shape=partialRectangle;connectable=0;fillColor=none;top=0;left=0;bottom=0;right=0;align=left;spacingLeft=6;fontStyle=5;overflow=hidden;" vertex="1" parent="6jE46qa5X71mXZ7icbi9-28">
          <mxGeometry x="30" width="150" height="30" as="geometry" />
        </mxCell>
        <mxCell id="6jE46qa5X71mXZ7icbi9-31" value="" style="shape=partialRectangle;collapsible=0;dropTarget=0;pointerEvents=0;fillColor=none;top=0;left=0;bottom=0;right=0;points=[[0,0.5],[1,0.5]];portConstraint=eastwest;" vertex="1" parent="6jE46qa5X71mXZ7icbi9-27">
          <mxGeometry y="60" width="180" height="30" as="geometry" />
        </mxCell>
        <mxCell id="6jE46qa5X71mXZ7icbi9-32" value="FK" style="shape=partialRectangle;connectable=0;fillColor=none;top=0;left=0;bottom=0;right=0;editable=1;overflow=hidden;" vertex="1" parent="6jE46qa5X71mXZ7icbi9-31">
          <mxGeometry width="30" height="30" as="geometry" />
        </mxCell>
        <mxCell id="6jE46qa5X71mXZ7icbi9-33" value="person_id" style="shape=partialRectangle;connectable=0;fillColor=none;top=0;left=0;bottom=0;right=0;align=left;spacingLeft=6;overflow=hidden;" vertex="1" parent="6jE46qa5X71mXZ7icbi9-31">
          <mxGeometry x="30" width="150" height="30" as="geometry" />
        </mxCell>
        <mxCell id="6jE46qa5X71mXZ7icbi9-34" value="" style="shape=partialRectangle;collapsible=0;dropTarget=0;pointerEvents=0;fillColor=none;top=0;left=0;bottom=0;right=0;points=[[0,0.5],[1,0.5]];portConstraint=eastwest;" vertex="1" parent="6jE46qa5X71mXZ7icbi9-27">
          <mxGeometry y="90" width="180" height="30" as="geometry" />
        </mxCell>
        <mxCell id="6jE46qa5X71mXZ7icbi9-35" value="FK" style="shape=partialRectangle;connectable=0;fillColor=none;top=0;left=0;bottom=0;right=0;editable=1;overflow=hidden;" vertex="1" parent="6jE46qa5X71mXZ7icbi9-34">
          <mxGeometry width="30" height="30" as="geometry" />
        </mxCell>
        <mxCell id="6jE46qa5X71mXZ7icbi9-36" value="establishment_id" style="shape=partialRectangle;connectable=0;fillColor=none;top=0;left=0;bottom=0;right=0;align=left;spacingLeft=6;overflow=hidden;" vertex="1" parent="6jE46qa5X71mXZ7icbi9-34">
          <mxGeometry x="30" width="150" height="30" as="geometry" />
        </mxCell>
        <mxCell id="6jE46qa5X71mXZ7icbi9-37" value="" style="shape=partialRectangle;collapsible=0;dropTarget=0;pointerEvents=0;fillColor=none;top=0;left=0;bottom=0;right=0;points=[[0,0.5],[1,0.5]];portConstraint=eastwest;" vertex="1" parent="6jE46qa5X71mXZ7icbi9-27">
          <mxGeometry y="120" width="180" height="30" as="geometry" />
        </mxCell>
        <mxCell id="6jE46qa5X71mXZ7icbi9-38" value="" style="shape=partialRectangle;connectable=0;fillColor=none;top=0;left=0;bottom=0;right=0;editable=1;overflow=hidden;" vertex="1" parent="6jE46qa5X71mXZ7icbi9-37">
          <mxGeometry width="30" height="30" as="geometry" />
        </mxCell>
        <mxCell id="6jE46qa5X71mXZ7icbi9-39" value="date_of_visit" style="shape=partialRectangle;connectable=0;fillColor=none;top=0;left=0;bottom=0;right=0;align=left;spacingLeft=6;overflow=hidden;" vertex="1" parent="6jE46qa5X71mXZ7icbi9-37">
          <mxGeometry x="30" width="150" height="30" as="geometry" />
        </mxCell>
        <mxCell id="6jE46qa5X71mXZ7icbi9-43" value="other_details" style="text;html=1;align=center;verticalAlign=middle;resizable=0;points=[];autosize=1;" vertex="1" parent="1">
          <mxGeometry x="530" y="390" width="80" height="20" as="geometry" />
        </mxCell>
        <mxCell id="6jE46qa5X71mXZ7icbi9-113" style="edgeStyle=orthogonalEdgeStyle;rounded=0;orthogonalLoop=1;jettySize=auto;html=1;entryX=0.409;entryY=-0.021;entryDx=0;entryDy=0;entryPerimeter=0;" edge="1" parent="1" source="6jE46qa5X71mXZ7icbi9-45" target="6jE46qa5X71mXZ7icbi9-1">
          <mxGeometry relative="1" as="geometry" />
        </mxCell>
        <mxCell id="6jE46qa5X71mXZ7icbi9-45" value="Ref_Genders" style="shape=table;startSize=30;container=1;collapsible=1;childLayout=tableLayout;fixedRows=1;rowLines=0;fontStyle=1;align=center;resizeLast=1;" vertex="1" parent="1">
          <mxGeometry x="10" y="10" width="180" height="150" as="geometry" />
        </mxCell>
        <mxCell id="6jE46qa5X71mXZ7icbi9-46" value="" style="shape=partialRectangle;collapsible=0;dropTarget=0;pointerEvents=0;fillColor=none;top=0;left=0;bottom=1;right=0;points=[[0,0.5],[1,0.5]];portConstraint=eastwest;" vertex="1" parent="6jE46qa5X71mXZ7icbi9-45">
          <mxGeometry y="30" width="180" height="30" as="geometry" />
        </mxCell>
        <mxCell id="6jE46qa5X71mXZ7icbi9-47" value="PK" style="shape=partialRectangle;connectable=0;fillColor=none;top=0;left=0;bottom=0;right=0;fontStyle=1;overflow=hidden;" vertex="1" parent="6jE46qa5X71mXZ7icbi9-46">
          <mxGeometry width="30" height="30" as="geometry" />
        </mxCell>
        <mxCell id="6jE46qa5X71mXZ7icbi9-48" value="gender_mfu" style="shape=partialRectangle;connectable=0;fillColor=none;top=0;left=0;bottom=0;right=0;align=left;spacingLeft=6;fontStyle=5;overflow=hidden;" vertex="1" parent="6jE46qa5X71mXZ7icbi9-46">
          <mxGeometry x="30" width="150" height="30" as="geometry" />
        </mxCell>
        <mxCell id="6jE46qa5X71mXZ7icbi9-49" value="" style="shape=partialRectangle;collapsible=0;dropTarget=0;pointerEvents=0;fillColor=none;top=0;left=0;bottom=0;right=0;points=[[0,0.5],[1,0.5]];portConstraint=eastwest;" vertex="1" parent="6jE46qa5X71mXZ7icbi9-45">
          <mxGeometry y="60" width="180" height="30" as="geometry" />
        </mxCell>
        <mxCell id="6jE46qa5X71mXZ7icbi9-50" value="" style="shape=partialRectangle;connectable=0;fillColor=none;top=0;left=0;bottom=0;right=0;editable=1;overflow=hidden;" vertex="1" parent="6jE46qa5X71mXZ7icbi9-49">
          <mxGeometry width="30" height="30" as="geometry" />
        </mxCell>
        <mxCell id="6jE46qa5X71mXZ7icbi9-51" value="gender_mfu_description" style="shape=partialRectangle;connectable=0;fillColor=none;top=0;left=0;bottom=0;right=0;align=left;spacingLeft=6;overflow=hidden;" vertex="1" parent="6jE46qa5X71mXZ7icbi9-49">
          <mxGeometry x="30" width="150" height="30" as="geometry" />
        </mxCell>
        <mxCell id="6jE46qa5X71mXZ7icbi9-52" value="" style="shape=partialRectangle;collapsible=0;dropTarget=0;pointerEvents=0;fillColor=none;top=0;left=0;bottom=0;right=0;points=[[0,0.5],[1,0.5]];portConstraint=eastwest;" vertex="1" parent="6jE46qa5X71mXZ7icbi9-45">
          <mxGeometry y="90" width="180" height="30" as="geometry" />
        </mxCell>
        <mxCell id="6jE46qa5X71mXZ7icbi9-53" value="" style="shape=partialRectangle;connectable=0;fillColor=none;top=0;left=0;bottom=0;right=0;editable=1;overflow=hidden;" vertex="1" parent="6jE46qa5X71mXZ7icbi9-52">
          <mxGeometry width="30" height="30" as="geometry" />
        </mxCell>
        <mxCell id="6jE46qa5X71mXZ7icbi9-54" value="eg Male, Female, Unknown" style="shape=partialRectangle;connectable=0;fillColor=none;top=0;left=0;bottom=0;right=0;align=left;spacingLeft=6;overflow=hidden;" vertex="1" parent="6jE46qa5X71mXZ7icbi9-52">
          <mxGeometry x="30" width="150" height="30" as="geometry" />
        </mxCell>
        <mxCell id="6jE46qa5X71mXZ7icbi9-55" value="" style="shape=partialRectangle;collapsible=0;dropTarget=0;pointerEvents=0;fillColor=none;top=0;left=0;bottom=0;right=0;points=[[0,0.5],[1,0.5]];portConstraint=eastwest;" vertex="1" parent="6jE46qa5X71mXZ7icbi9-45">
          <mxGeometry y="120" width="180" height="30" as="geometry" />
        </mxCell>
        <mxCell id="6jE46qa5X71mXZ7icbi9-56" value="" style="shape=partialRectangle;connectable=0;fillColor=none;top=0;left=0;bottom=0;right=0;editable=1;overflow=hidden;" vertex="1" parent="6jE46qa5X71mXZ7icbi9-55">
          <mxGeometry width="30" height="30" as="geometry" />
        </mxCell>
        <mxCell id="6jE46qa5X71mXZ7icbi9-57" value="" style="shape=partialRectangle;connectable=0;fillColor=none;top=0;left=0;bottom=0;right=0;align=left;spacingLeft=6;overflow=hidden;" vertex="1" parent="6jE46qa5X71mXZ7icbi9-55">
          <mxGeometry x="30" width="150" height="30" as="geometry" />
        </mxCell>
        <mxCell id="6jE46qa5X71mXZ7icbi9-58" value="Staff" style="shape=table;startSize=20;container=1;collapsible=1;childLayout=tableLayout;fixedRows=1;rowLines=0;fontStyle=1;align=center;resizeLast=1;" vertex="1" parent="1">
          <mxGeometry x="250" y="500" width="180" height="160" as="geometry" />
        </mxCell>
        <mxCell id="6jE46qa5X71mXZ7icbi9-59" value="" style="shape=partialRectangle;collapsible=0;dropTarget=0;pointerEvents=0;fillColor=none;top=0;left=0;bottom=1;right=0;points=[[0,0.5],[1,0.5]];portConstraint=eastwest;" vertex="1" parent="6jE46qa5X71mXZ7icbi9-58">
          <mxGeometry y="20" width="180" height="30" as="geometry" />
        </mxCell>
        <mxCell id="6jE46qa5X71mXZ7icbi9-60" value="PK" style="shape=partialRectangle;connectable=0;fillColor=none;top=0;left=0;bottom=0;right=0;fontStyle=1;overflow=hidden;" vertex="1" parent="6jE46qa5X71mXZ7icbi9-59">
          <mxGeometry width="30" height="30" as="geometry" />
        </mxCell>
        <mxCell id="6jE46qa5X71mXZ7icbi9-61" value="UniqueID" style="shape=partialRectangle;connectable=0;fillColor=none;top=0;left=0;bottom=0;right=0;align=left;spacingLeft=6;fontStyle=5;overflow=hidden;" vertex="1" parent="6jE46qa5X71mXZ7icbi9-59">
          <mxGeometry x="30" width="150" height="30" as="geometry" />
        </mxCell>
        <mxCell id="6jE46qa5X71mXZ7icbi9-62" value="" style="shape=partialRectangle;collapsible=0;dropTarget=0;pointerEvents=0;fillColor=none;top=0;left=0;bottom=0;right=0;points=[[0,0.5],[1,0.5]];portConstraint=eastwest;" vertex="1" parent="6jE46qa5X71mXZ7icbi9-58">
          <mxGeometry y="50" width="180" height="30" as="geometry" />
        </mxCell>
        <mxCell id="6jE46qa5X71mXZ7icbi9-63" value="FK" style="shape=partialRectangle;connectable=0;fillColor=none;top=0;left=0;bottom=0;right=0;editable=1;overflow=hidden;" vertex="1" parent="6jE46qa5X71mXZ7icbi9-62">
          <mxGeometry width="30" height="30" as="geometry" />
        </mxCell>
        <mxCell id="6jE46qa5X71mXZ7icbi9-64" value="establishment_id" style="shape=partialRectangle;connectable=0;fillColor=none;top=0;left=0;bottom=0;right=0;align=left;spacingLeft=6;overflow=hidden;" vertex="1" parent="6jE46qa5X71mXZ7icbi9-62">
          <mxGeometry x="30" width="150" height="30" as="geometry" />
        </mxCell>
        <mxCell id="6jE46qa5X71mXZ7icbi9-65" value="" style="shape=partialRectangle;collapsible=0;dropTarget=0;pointerEvents=0;fillColor=none;top=0;left=0;bottom=0;right=0;points=[[0,0.5],[1,0.5]];portConstraint=eastwest;" vertex="1" parent="6jE46qa5X71mXZ7icbi9-58">
          <mxGeometry y="80" width="180" height="30" as="geometry" />
        </mxCell>
        <mxCell id="6jE46qa5X71mXZ7icbi9-66" value="" style="shape=partialRectangle;connectable=0;fillColor=none;top=0;left=0;bottom=0;right=0;editable=1;overflow=hidden;" vertex="1" parent="6jE46qa5X71mXZ7icbi9-65">
          <mxGeometry width="30" height="30" as="geometry" />
        </mxCell>
        <mxCell id="6jE46qa5X71mXZ7icbi9-67" value="date_of_birth" style="shape=partialRectangle;connectable=0;fillColor=none;top=0;left=0;bottom=0;right=0;align=left;spacingLeft=6;overflow=hidden;" vertex="1" parent="6jE46qa5X71mXZ7icbi9-65">
          <mxGeometry x="30" width="150" height="30" as="geometry" />
        </mxCell>
        <mxCell id="6jE46qa5X71mXZ7icbi9-68" value="" style="shape=partialRectangle;collapsible=0;dropTarget=0;pointerEvents=0;fillColor=none;top=0;left=0;bottom=0;right=0;points=[[0,0.5],[1,0.5]];portConstraint=eastwest;" vertex="1" parent="6jE46qa5X71mXZ7icbi9-58">
          <mxGeometry y="110" width="180" height="30" as="geometry" />
        </mxCell>
        <mxCell id="6jE46qa5X71mXZ7icbi9-69" value="" style="shape=partialRectangle;connectable=0;fillColor=none;top=0;left=0;bottom=0;right=0;editable=1;overflow=hidden;" vertex="1" parent="6jE46qa5X71mXZ7icbi9-68">
          <mxGeometry width="30" height="30" as="geometry" />
        </mxCell>
        <mxCell id="6jE46qa5X71mXZ7icbi9-70" value="home_address" style="shape=partialRectangle;connectable=0;fillColor=none;top=0;left=0;bottom=0;right=0;align=left;spacingLeft=6;overflow=hidden;" vertex="1" parent="6jE46qa5X71mXZ7icbi9-68">
          <mxGeometry x="30" width="150" height="30" as="geometry" />
        </mxCell>
        <mxCell id="6jE46qa5X71mXZ7icbi9-114" style="edgeStyle=orthogonalEdgeStyle;rounded=0;orthogonalLoop=1;jettySize=auto;html=1;entryX=0.75;entryY=0;entryDx=0;entryDy=0;horizontal=1;verticalAlign=middle;" edge="1" parent="1" source="6jE46qa5X71mXZ7icbi9-71" target="6jE46qa5X71mXZ7icbi9-1">
          <mxGeometry relative="1" as="geometry" />
        </mxCell>
        <mxCell id="6jE46qa5X71mXZ7icbi9-71" value="Ref_Types_of_People" style="shape=table;startSize=30;container=1;collapsible=1;childLayout=tableLayout;fixedRows=1;rowLines=0;fontStyle=1;align=center;resizeLast=1;" vertex="1" parent="1">
          <mxGeometry x="240" y="10" width="180" height="150" as="geometry" />
        </mxCell>
        <mxCell id="6jE46qa5X71mXZ7icbi9-72" value="" style="shape=partialRectangle;collapsible=0;dropTarget=0;pointerEvents=0;fillColor=none;top=0;left=0;bottom=1;right=0;points=[[0,0.5],[1,0.5]];portConstraint=eastwest;" vertex="1" parent="6jE46qa5X71mXZ7icbi9-71">
          <mxGeometry y="30" width="180" height="30" as="geometry" />
        </mxCell>
        <mxCell id="6jE46qa5X71mXZ7icbi9-73" value="PK" style="shape=partialRectangle;connectable=0;fillColor=none;top=0;left=0;bottom=0;right=0;fontStyle=1;overflow=hidden;" vertex="1" parent="6jE46qa5X71mXZ7icbi9-72">
          <mxGeometry width="30" height="30" as="geometry" />
        </mxCell>
        <mxCell id="6jE46qa5X71mXZ7icbi9-74" value="people_type_code" style="shape=partialRectangle;connectable=0;fillColor=none;top=0;left=0;bottom=0;right=0;align=left;spacingLeft=6;fontStyle=5;overflow=hidden;" vertex="1" parent="6jE46qa5X71mXZ7icbi9-72">
          <mxGeometry x="30" width="150" height="30" as="geometry" />
        </mxCell>
        <mxCell id="6jE46qa5X71mXZ7icbi9-75" value="" style="shape=partialRectangle;collapsible=0;dropTarget=0;pointerEvents=0;fillColor=none;top=0;left=0;bottom=0;right=0;points=[[0,0.5],[1,0.5]];portConstraint=eastwest;" vertex="1" parent="6jE46qa5X71mXZ7icbi9-71">
          <mxGeometry y="60" width="180" height="30" as="geometry" />
        </mxCell>
        <mxCell id="6jE46qa5X71mXZ7icbi9-76" value="" style="shape=partialRectangle;connectable=0;fillColor=none;top=0;left=0;bottom=0;right=0;editable=1;overflow=hidden;" vertex="1" parent="6jE46qa5X71mXZ7icbi9-75">
          <mxGeometry width="30" height="30" as="geometry" />
        </mxCell>
        <mxCell id="6jE46qa5X71mXZ7icbi9-77" value="people_type_description" style="shape=partialRectangle;connectable=0;fillColor=none;top=0;left=0;bottom=0;right=0;align=left;spacingLeft=6;overflow=hidden;" vertex="1" parent="6jE46qa5X71mXZ7icbi9-75">
          <mxGeometry x="30" width="150" height="30" as="geometry" />
        </mxCell>
        <mxCell id="6jE46qa5X71mXZ7icbi9-78" value="" style="shape=partialRectangle;collapsible=0;dropTarget=0;pointerEvents=0;fillColor=none;top=0;left=0;bottom=0;right=0;points=[[0,0.5],[1,0.5]];portConstraint=eastwest;" vertex="1" parent="6jE46qa5X71mXZ7icbi9-71">
          <mxGeometry y="90" width="180" height="30" as="geometry" />
        </mxCell>
        <mxCell id="6jE46qa5X71mXZ7icbi9-79" value="" style="shape=partialRectangle;connectable=0;fillColor=none;top=0;left=0;bottom=0;right=0;editable=1;overflow=hidden;" vertex="1" parent="6jE46qa5X71mXZ7icbi9-78">
          <mxGeometry width="30" height="30" as="geometry" />
        </mxCell>
        <mxCell id="6jE46qa5X71mXZ7icbi9-80" value="eg Staff, Tourist, Unknown" style="shape=partialRectangle;connectable=0;fillColor=none;top=0;left=0;bottom=0;right=0;align=left;spacingLeft=6;overflow=hidden;" vertex="1" parent="6jE46qa5X71mXZ7icbi9-78">
          <mxGeometry x="30" width="150" height="30" as="geometry" />
        </mxCell>
        <mxCell id="6jE46qa5X71mXZ7icbi9-81" value="" style="shape=partialRectangle;collapsible=0;dropTarget=0;pointerEvents=0;fillColor=none;top=0;left=0;bottom=0;right=0;points=[[0,0.5],[1,0.5]];portConstraint=eastwest;" vertex="1" parent="6jE46qa5X71mXZ7icbi9-71">
          <mxGeometry y="120" width="180" height="30" as="geometry" />
        </mxCell>
        <mxCell id="6jE46qa5X71mXZ7icbi9-82" value="" style="shape=partialRectangle;connectable=0;fillColor=none;top=0;left=0;bottom=0;right=0;editable=1;overflow=hidden;" vertex="1" parent="6jE46qa5X71mXZ7icbi9-81">
          <mxGeometry width="30" height="30" as="geometry" />
        </mxCell>
        <mxCell id="6jE46qa5X71mXZ7icbi9-83" value="" style="shape=partialRectangle;connectable=0;fillColor=none;top=0;left=0;bottom=0;right=0;align=left;spacingLeft=6;overflow=hidden;" vertex="1" parent="6jE46qa5X71mXZ7icbi9-81">
          <mxGeometry x="30" width="150" height="30" as="geometry" />
        </mxCell>
        <mxCell id="6jE46qa5X71mXZ7icbi9-115" style="edgeStyle=orthogonalEdgeStyle;rounded=0;orthogonalLoop=1;jettySize=auto;html=1;" edge="1" parent="1" source="6jE46qa5X71mXZ7icbi9-84">
          <mxGeometry relative="1" as="geometry">
            <mxPoint x="595" y="230" as="targetPoint" />
          </mxGeometry>
        </mxCell>
        <mxCell id="6jE46qa5X71mXZ7icbi9-84" value="Ref_Types_of_Establishments" style="shape=table;startSize=30;container=1;collapsible=1;childLayout=tableLayout;fixedRows=1;rowLines=0;fontStyle=1;align=center;resizeLast=1;" vertex="1" parent="1">
          <mxGeometry x="490" y="10" width="210" height="160" as="geometry" />
        </mxCell>
        <mxCell id="6jE46qa5X71mXZ7icbi9-85" value="" style="shape=partialRectangle;collapsible=0;dropTarget=0;pointerEvents=0;fillColor=none;top=0;left=0;bottom=1;right=0;points=[[0,0.5],[1,0.5]];portConstraint=eastwest;" vertex="1" parent="6jE46qa5X71mXZ7icbi9-84">
          <mxGeometry y="30" width="210" height="30" as="geometry" />
        </mxCell>
        <mxCell id="6jE46qa5X71mXZ7icbi9-86" value="PK" style="shape=partialRectangle;connectable=0;fillColor=none;top=0;left=0;bottom=0;right=0;fontStyle=1;overflow=hidden;" vertex="1" parent="6jE46qa5X71mXZ7icbi9-85">
          <mxGeometry width="30" height="30" as="geometry" />
        </mxCell>
        <mxCell id="6jE46qa5X71mXZ7icbi9-87" value="establishment_type_code" style="shape=partialRectangle;connectable=0;fillColor=none;top=0;left=0;bottom=0;right=0;align=left;spacingLeft=6;fontStyle=5;overflow=hidden;" vertex="1" parent="6jE46qa5X71mXZ7icbi9-85">
          <mxGeometry x="30" width="180" height="30" as="geometry" />
        </mxCell>
        <mxCell id="6jE46qa5X71mXZ7icbi9-88" value="" style="shape=partialRectangle;collapsible=0;dropTarget=0;pointerEvents=0;fillColor=none;top=0;left=0;bottom=0;right=0;points=[[0,0.5],[1,0.5]];portConstraint=eastwest;" vertex="1" parent="6jE46qa5X71mXZ7icbi9-84">
          <mxGeometry y="60" width="210" height="30" as="geometry" />
        </mxCell>
        <mxCell id="6jE46qa5X71mXZ7icbi9-89" value="" style="shape=partialRectangle;connectable=0;fillColor=none;top=0;left=0;bottom=0;right=0;editable=1;overflow=hidden;" vertex="1" parent="6jE46qa5X71mXZ7icbi9-88">
          <mxGeometry width="30" height="30" as="geometry" />
        </mxCell>
        <mxCell id="6jE46qa5X71mXZ7icbi9-90" value="establishment_type_description" style="shape=partialRectangle;connectable=0;fillColor=none;top=0;left=0;bottom=0;right=0;align=left;spacingLeft=6;overflow=hidden;" vertex="1" parent="6jE46qa5X71mXZ7icbi9-88">
          <mxGeometry x="30" width="180" height="30" as="geometry" />
        </mxCell>
        <mxCell id="6jE46qa5X71mXZ7icbi9-91" value="" style="shape=partialRectangle;collapsible=0;dropTarget=0;pointerEvents=0;fillColor=none;top=0;left=0;bottom=0;right=0;points=[[0,0.5],[1,0.5]];portConstraint=eastwest;" vertex="1" parent="6jE46qa5X71mXZ7icbi9-84">
          <mxGeometry y="90" width="210" height="30" as="geometry" />
        </mxCell>
        <mxCell id="6jE46qa5X71mXZ7icbi9-92" value="" style="shape=partialRectangle;connectable=0;fillColor=none;top=0;left=0;bottom=0;right=0;editable=1;overflow=hidden;" vertex="1" parent="6jE46qa5X71mXZ7icbi9-91">
          <mxGeometry width="30" height="30" as="geometry" />
        </mxCell>
        <mxCell id="6jE46qa5X71mXZ7icbi9-93" value="eg Bank, Cafe, Shop" style="shape=partialRectangle;connectable=0;fillColor=none;top=0;left=0;bottom=0;right=0;align=left;spacingLeft=6;overflow=hidden;" vertex="1" parent="6jE46qa5X71mXZ7icbi9-91">
          <mxGeometry x="30" width="180" height="30" as="geometry" />
        </mxCell>
        <mxCell id="6jE46qa5X71mXZ7icbi9-94" value="" style="shape=partialRectangle;collapsible=0;dropTarget=0;pointerEvents=0;fillColor=none;top=0;left=0;bottom=0;right=0;points=[[0,0.5],[1,0.5]];portConstraint=eastwest;" vertex="1" parent="6jE46qa5X71mXZ7icbi9-84">
          <mxGeometry y="120" width="210" height="30" as="geometry" />
        </mxCell>
        <mxCell id="6jE46qa5X71mXZ7icbi9-95" value="" style="shape=partialRectangle;connectable=0;fillColor=none;top=0;left=0;bottom=0;right=0;editable=1;overflow=hidden;" vertex="1" parent="6jE46qa5X71mXZ7icbi9-94">
          <mxGeometry width="30" height="30" as="geometry" />
        </mxCell>
        <mxCell id="6jE46qa5X71mXZ7icbi9-96" value="eg Palace, Windsor Park" style="shape=partialRectangle;connectable=0;fillColor=none;top=0;left=0;bottom=0;right=0;align=left;spacingLeft=6;overflow=hidden;" vertex="1" parent="6jE46qa5X71mXZ7icbi9-94">
          <mxGeometry x="30" width="180" height="30" as="geometry" />
        </mxCell>
        <mxCell id="6jE46qa5X71mXZ7icbi9-97" value="Refs_Types_of_Products" style="shape=table;startSize=30;container=1;collapsible=1;childLayout=tableLayout;fixedRows=1;rowLines=0;fontStyle=1;align=center;resizeLast=1;" vertex="1" parent="1">
          <mxGeometry x="550" y="500" width="180" height="130" as="geometry" />
        </mxCell>
        <mxCell id="6jE46qa5X71mXZ7icbi9-98" value="" style="shape=partialRectangle;collapsible=0;dropTarget=0;pointerEvents=0;fillColor=none;top=0;left=0;bottom=1;right=0;points=[[0,0.5],[1,0.5]];portConstraint=eastwest;" vertex="1" parent="6jE46qa5X71mXZ7icbi9-97">
          <mxGeometry y="30" width="180" height="30" as="geometry" />
        </mxCell>
        <mxCell id="6jE46qa5X71mXZ7icbi9-99" value="PK" style="shape=partialRectangle;connectable=0;fillColor=none;top=0;left=0;bottom=0;right=0;fontStyle=1;overflow=hidden;" vertex="1" parent="6jE46qa5X71mXZ7icbi9-98">
          <mxGeometry width="30" height="30" as="geometry" />
        </mxCell>
        <mxCell id="6jE46qa5X71mXZ7icbi9-100" value="product_type_code" style="shape=partialRectangle;connectable=0;fillColor=none;top=0;left=0;bottom=0;right=0;align=left;spacingLeft=6;fontStyle=5;overflow=hidden;" vertex="1" parent="6jE46qa5X71mXZ7icbi9-98">
          <mxGeometry x="30" width="150" height="30" as="geometry" />
        </mxCell>
        <mxCell id="6jE46qa5X71mXZ7icbi9-101" value="" style="shape=partialRectangle;collapsible=0;dropTarget=0;pointerEvents=0;fillColor=none;top=0;left=0;bottom=0;right=0;points=[[0,0.5],[1,0.5]];portConstraint=eastwest;" vertex="1" parent="6jE46qa5X71mXZ7icbi9-97">
          <mxGeometry y="60" width="180" height="30" as="geometry" />
        </mxCell>
        <mxCell id="6jE46qa5X71mXZ7icbi9-102" value="" style="shape=partialRectangle;connectable=0;fillColor=none;top=0;left=0;bottom=0;right=0;editable=1;overflow=hidden;" vertex="1" parent="6jE46qa5X71mXZ7icbi9-101">
          <mxGeometry width="30" height="30" as="geometry" />
        </mxCell>
        <mxCell id="6jE46qa5X71mXZ7icbi9-103" value="product_type_description" style="shape=partialRectangle;connectable=0;fillColor=none;top=0;left=0;bottom=0;right=0;align=left;spacingLeft=6;overflow=hidden;" vertex="1" parent="6jE46qa5X71mXZ7icbi9-101">
          <mxGeometry x="30" width="150" height="30" as="geometry" />
        </mxCell>
        <mxCell id="6jE46qa5X71mXZ7icbi9-104" value="" style="shape=partialRectangle;collapsible=0;dropTarget=0;pointerEvents=0;fillColor=none;top=0;left=0;bottom=0;right=0;points=[[0,0.5],[1,0.5]];portConstraint=eastwest;" vertex="1" parent="6jE46qa5X71mXZ7icbi9-97">
          <mxGeometry y="90" width="180" height="30" as="geometry" />
        </mxCell>
        <mxCell id="6jE46qa5X71mXZ7icbi9-105" value="" style="shape=partialRectangle;connectable=0;fillColor=none;top=0;left=0;bottom=0;right=0;editable=1;overflow=hidden;" vertex="1" parent="6jE46qa5X71mXZ7icbi9-104">
          <mxGeometry width="30" height="30" as="geometry" />
        </mxCell>
        <mxCell id="6jE46qa5X71mXZ7icbi9-106" value="eg Coffee, Souvenir" style="shape=partialRectangle;connectable=0;fillColor=none;top=0;left=0;bottom=0;right=0;align=left;spacingLeft=6;overflow=hidden;" vertex="1" parent="6jE46qa5X71mXZ7icbi9-104">
          <mxGeometry x="30" width="150" height="30" as="geometry" />
        </mxCell>
      </root>
    </mxGraphModel>
  </diagram>
</mxfile>
